<?xml version="1.0" encoding="UTF-8" standalone="no"?>
<!DOCTYPE svg PUBLIC "-//W3C//DTD SVG 1.1//EN" "http://www.w3.org/Graphics/SVG/1.1/DTD/svg11.dtd">
<svg width="100%" height="100%" viewBox="0 0 137 31" version="1.1" xmlns="http://www.w3.org/2000/svg" xmlns:xlink="http://www.w3.org/1999/xlink" xml:space="preserve" xmlns:serif="http://www.serif.com/" style="fill-rule:evenodd;clip-rule:evenodd;stroke-linejoin:round;stroke-miterlimit:2;">
    <g transform="matrix(1,0,0,1,-314.739,-188.309)">
        <g transform="matrix(0.0115061,0,0,0.0256322,311.424,192.769)">
            <path d="M595.468,999.21L728.799,999.21C770.982,999.21 806.575,992.785 835.576,979.935C864.577,967.086 879.078,951.193 879.078,932.257L879.078,848.06C991.317,851.441 1101.86,854.062 1210.71,855.922C1319.56,857.782 1423.7,858.712 1523.13,858.712C1622.57,858.712 1726.71,857.866 1835.56,856.175C1944.4,854.485 2055.32,851.78 2168.32,848.06L2168.32,932.257C2168.32,951.193 2182.63,967.086 2211.25,979.935C2239.88,992.785 2275.28,999.21 2317.47,999.21L2450.8,999.21C2492.98,999.21 2528.57,992.7 2557.57,979.682C2586.58,966.663 2601.08,950.855 2601.08,932.257L2601.08,-43.62C2601.08,-76.42 2580.36,-102.119 2538.93,-120.717C2497.5,-139.314 2438.74,-150.642 2362.66,-154.7C2242.14,-160.787 2108.43,-165.52 1961.54,-168.902C1814.65,-172.283 1668.52,-173.974 1523.13,-173.974C1378.5,-173.974 1232.93,-172.368 1086.42,-169.156C939.905,-165.943 806.01,-161.125 684.732,-154.7C607.897,-150.642 548.953,-139.314 507.899,-120.717C466.845,-102.119 446.318,-76.42 446.318,-43.62L446.318,932.257C446.318,950.855 460.631,966.663 489.255,979.682C517.88,992.7 553.284,999.21 595.468,999.21ZM844.05,738.502C802.62,738.502 767.969,732.246 740.098,719.735C712.226,707.224 698.291,691.669 698.291,673.072C698.291,654.136 712.226,638.497 740.098,626.154C767.969,613.812 802.62,607.641 844.05,607.641C885.481,607.641 920.132,613.812 948.003,626.154C975.874,638.497 989.81,654.136 989.81,673.072C989.81,691.669 975.874,707.224 948.003,719.735C920.132,732.246 885.481,738.502 844.05,738.502ZM1276.81,716.185C1247.43,716.185 1223.52,712.042 1205.06,703.758C1186.61,695.474 1177.38,684.907 1177.38,672.057C1177.38,658.87 1186.61,648.218 1205.06,640.103C1223.52,631.987 1247.43,627.93 1276.81,627.93L1768.33,627.93C1796.95,627.93 1820.49,631.987 1838.94,640.103C1857.4,648.218 1866.63,658.87 1866.63,672.057C1866.63,684.907 1857.4,695.474 1838.94,703.758C1820.49,712.042 1796.95,716.185 1768.33,716.185L1276.81,716.185ZM2202.22,738.502C2160.78,738.502 2126.32,732.246 2098.83,719.735C2071.33,707.224 2057.59,691.669 2057.59,673.072C2057.59,654.136 2071.33,638.497 2098.83,626.154C2126.32,613.812 2160.78,607.641 2202.22,607.641C2244.4,607.641 2279.43,613.812 2307.3,626.154C2335.17,638.497 2349.1,654.136 2349.1,673.072C2349.1,691.669 2335.17,707.224 2307.3,719.735C2279.43,732.246 2244.4,738.502 2202.22,738.502ZM773.995,512.285C699.421,506.875 662.133,486.755 662.133,451.927L662.133,1.522C662.133,-38.717 705.07,-60.866 790.944,-64.923C869.285,-68.643 949.133,-71.771 1030.49,-74.307C1111.84,-76.843 1193.76,-78.703 1276.25,-79.886C1358.73,-81.07 1441.59,-81.661 1524.83,-81.661C1608.07,-81.661 1690.93,-81.07 1773.41,-79.886C1855.89,-78.703 1937.62,-76.843 2018.6,-74.307C2099.58,-71.771 2179.24,-68.643 2257.58,-64.923C2342.7,-60.866 2385.26,-38.717 2385.26,1.522L2385.26,451.927C2385.26,486.755 2347.97,506.875 2273.4,512.285C2195.06,517.357 2114.46,521.669 2031.6,525.219C1948.74,528.77 1864.75,531.39 1779.62,533.081C1694.5,534.772 1608.82,535.617 1522.57,535.617C1436.32,535.617 1350.44,534.772 1264.95,533.081C1179.45,531.39 1095.65,528.77 1013.54,525.219C931.431,521.669 851.583,517.357 773.995,512.285ZM519.763,300.777L519.763,13.695L395.472,13.695C363.834,13.695 338.034,17.752 318.073,25.868C298.111,33.983 288.13,44.804 288.13,58.329L288.13,256.65C288.13,270.175 298.111,280.911 318.073,288.858C338.034,296.804 363.834,300.777 395.472,300.777L519.763,300.777ZM2526.5,300.777L2650.79,300.777C2682.43,300.777 2708.23,296.804 2728.19,288.858C2748.15,280.911 2758.14,270.175 2758.14,256.65L2758.14,58.329C2758.14,44.804 2748.15,33.983 2728.19,25.868C2708.23,17.752 2682.43,13.695 2650.79,13.695L2526.5,13.695L2526.5,300.777Z" style="fill:white;fill-rule:nonzero;"/>
        </g>
        <g transform="matrix(3.44441,0,0,3.44441,-887.797,-1007.6)">
            <text x="358.111px" y="355.793px" style="font-family:'Arial-BoldMT', 'Arial', sans-serif;font-weight:700;font-size:12px;fill:white;">muvil</text>
        </g>
    </g>
</svg>
